<svg width="512" height="512" viewBox="0 0 512 512" fill="none" xmlns="http://www.w3.org/2000/svg">
<path d="M209.787 20.3016C190.229 45.6402 181.213 51.5964 165.31 87.4095C164.928 88.2693 165.832 89.1431 166.669 88.7119L193.742 74.7523C194.57 74.3252 195.472 75.1961 195.123 76.0603C172.093 133.142 184.518 156.862 235.189 178.376C235.866 178.663 236.628 178.151 236.591 177.416L234.694 139.478C234.679 139.176 234.528 138.897 234.284 138.719L230.004 135.606C229.548 135.274 229.456 134.631 229.802 134.185L255.865 100.54C256.27 100.017 257.062 100.024 257.457 100.554L282.565 134.189C282.898 134.635 282.802 135.268 282.352 135.596L278.057 138.719C277.813 138.897 277.662 139.176 277.647 139.478L275.735 177.706C275.703 178.361 276.315 178.865 276.954 178.72C341.742 164.032 351.54 73.6055 303.545 20.5455C302.872 19.8012 303.579 18.6016 304.552 18.847C353.202 31.1177 379.884 41.7777 417.91 76.798C418.323 77.178 418.983 77.147 419.357 76.7293C435.939 58.2294 448.112 52.9325 472.08 51.6046C472.918 51.5582 473.401 52.5513 472.91 53.2326C435.209 105.495 463.242 108.991 435.093 203.922C434.816 204.856 435.884 205.658 436.644 205.048C455.493 189.937 462.609 178.385 469.43 156.878C469.702 156.019 470.886 155.928 471.281 156.738C528.791 274.541 458.022 431.652 330.8 468.618C329.855 468.893 329.135 467.776 329.77 467.024C355.355 436.714 367.651 416.591 367.671 362.765C367.671 362.595 367.716 362.419 367.799 362.27C382.753 335.444 390.107 318.959 400.463 289.905C400.804 288.95 399.672 288.151 398.891 288.797L341.945 335.86C341.518 336.213 340.878 336.143 340.526 335.715C319.899 310.641 305.95 300.963 276.318 296.663C275.717 296.576 275.171 297.041 275.171 297.648V401.221C275.171 402.236 275.93 403.089 276.937 403.208L281.904 403.792C282.911 403.911 283.671 404.764 283.671 405.779V492.5C283.671 493.052 283.223 493.5 282.671 493.5H232.171C231.618 493.5 231.171 493.052 231.171 492.5V405.779C231.171 404.764 231.93 403.911 232.937 403.792L237.904 403.208C238.911 403.089 239.671 402.236 239.671 401.221V296.534C239.671 295.969 239.202 295.516 238.637 295.534L212.146 296.417C211.247 296.447 210.789 295.354 211.426 294.719C242.486 263.708 264.34 269.026 295.171 250.5C317.685 236.971 329.35 221.836 335.909 197.908C336.163 196.981 335.033 196.327 334.283 196.929C253.261 261.928 232.106 233.007 174.171 285C135.941 323.72 131.823 409.524 182.068 468.471C182.768 469.292 181.852 470.535 180.867 470.096C124.258 444.876 100.721 427.105 71.8758 392.248C71.7436 392.089 71.662 391.887 71.6476 391.68C68.4709 346.138 103.389 307.953 109.58 295.805C109.898 295.181 109.427 294.511 108.734 294.608C95.2765 296.493 61.4153 322.547 39.6707 332.548C39.1309 332.796 38.5071 332.494 38.3252 331.928C22.3132 282.139 18.5682 256.942 22.3671 236C27.1764 209.489 50.0394 188.325 103.863 125.689C104.518 124.926 103.785 123.766 102.83 124.084C78.1951 132.299 63.2163 142.327 38.7896 165.951C38.0583 166.658 36.8702 165.964 37.1577 164.988C59.5645 88.9286 145.134 25.4004 208.943 18.7111C209.806 18.6206 210.317 19.6148 209.787 20.3016Z" fill="white"/>
</svg>
