<svg width="512" height="512" viewBox="0 0 512 512" fill="none" xmlns="http://www.w3.org/2000/svg">
<path d="M201 60.5001C203.085 58.0001 204.5 36.5001 201.5 32.5001C199.957 30.4423 189.025 31.3208 180.5 35.5001C172.454 39.4446 166.769 46.5723 166 49.0001C164.415 54.0001 174.5 71.1077 177.5 72.0001C180.5 72.8925 198.915 63.0001 201 60.5001Z" fill="white"/>
<path d="M315 60.5001C312.915 58.0001 311.5 36.5001 314.5 32.5001C316.043 30.4423 326.975 31.3208 335.5 35.5001C343.546 39.4446 349.231 46.5723 350 49.0001C351.585 54.0001 341.5 71.1077 338.5 72.0001C335.5 72.8925 317.085 63.0001 315 60.5001Z" fill="white"/>
<path d="M258 8C246.5 8 231.9 12 229.5 18C227.1 24 238.218 49.0272 246 50C253.782 50.9728 256 51 258 51C260 51 262.218 50.9728 270 50C277.782 49.0272 288.9 24 286.5 18C284.1 12 269.5 8 258 8Z" fill="white"/>
<path fill-rule="evenodd" clip-rule="evenodd" d="M258 61.5001C250.748 61.4565 240.418 63.7128 236.545 64.6249C235.636 64.8391 235.018 65.6631 235.044 66.597L236.444 117.946C236.475 119.071 235.571 120 234.445 120H208C206.895 120 206 119.105 206 118V76.829C206 75.4485 204.631 74.484 203.335 74.9579C193.162 78.6757 186.874 81.7522 177.055 87.3922C176.406 87.7647 176.022 88.4692 176.057 89.2161L177.405 117.967C177.457 119.084 176.583 120.029 175.465 120.052C165.812 120.25 159.596 119.551 153.702 113C147.405 106 149.5 80.0001 148 70.5001C146.505 61.0332 98.3377 23.2972 74.7468 23.9914C74.5783 23.9963 74.4207 24.0239 74.2596 24.0734C53.1325 30.5649 28.2181 51.9088 16.5258 68.7334C16.1866 69.2215 16.0974 69.8344 16.2615 70.4057C20.6841 85.8086 22.3242 95.8748 23.9303 111.805C23.9754 112.252 24.1732 112.68 24.4857 113.003C35.994 124.896 43.4806 131.161 57.5255 140.831C58.124 141.243 58.9064 141.297 59.556 140.972C72.7828 134.342 79.7932 130.462 90.3537 123.902C90.7685 123.645 91.078 123.241 91.2142 122.772C93.8106 113.833 94.3934 107.482 93 93.5001C88.1293 74.3198 62.3148 72.1799 54.1504 83.9906C53.6519 84.7117 52.6661 84.598 52.7072 83.7224C53.0198 77.0663 60.8529 63.5001 74.5 63.5001C88.4822 62.6887 104.203 70.8452 107.412 79.7477C107.473 79.9159 107.505 80.0935 107.515 80.272C108.489 98.3345 108.833 108.92 107.558 126.697C107.522 127.209 107.293 127.688 106.912 128.032C87.7661 145.332 58.9695 168 56 168C53 168 27.5 143.5 26 143.5C24.5039 143.5 27.7094 240.638 31.9668 303.014C31.9889 303.338 32.0673 303.612 32.2423 303.885C54.0664 338.005 212.129 433.058 257.147 507.567C257.541 508.22 258.459 508.22 258.854 507.567C303.871 433.058 461.934 338.005 483.758 303.885C483.933 303.612 484.011 303.338 484.033 303.014C488.291 240.638 491.496 143.5 490 143.5C488.5 143.5 463 168 460 168C457.031 168 428.234 145.332 409.088 128.032C408.707 127.688 408.478 127.209 408.442 126.697C407.167 108.92 407.511 98.3345 408.485 80.272C408.495 80.0935 408.527 79.9159 408.588 79.7477C411.797 70.8452 427.518 62.6887 441.5 63.5001C455.147 63.5001 462.98 77.0663 463.293 83.7224C463.334 84.598 462.348 84.7117 461.85 83.9906C453.685 72.1799 427.871 74.3198 423 93.5001C421.607 107.482 422.189 113.833 424.786 122.772C424.922 123.241 425.232 123.645 425.646 123.902C436.207 130.462 443.217 134.342 456.444 140.972C457.094 141.297 457.876 141.243 458.475 140.831C472.519 131.161 480.006 124.896 491.514 113.003C491.827 112.68 492.025 112.252 492.07 111.805C493.676 95.8748 495.316 85.8086 499.739 70.4057C499.903 69.8344 499.813 69.2215 499.474 68.7334C487.782 51.9088 462.867 30.5649 441.74 24.0734C441.579 24.0239 441.422 23.9963 441.253 23.9914C417.662 23.2972 369.495 61.0332 368 70.5001C366.5 80.0001 368.595 106 362.298 113C356.404 119.551 350.188 120.25 340.535 120.052C339.417 120.029 338.543 119.084 338.595 117.967L339.943 89.2161C339.978 88.4692 339.594 87.7647 338.945 87.3922C329.126 81.7522 322.838 78.6757 312.665 74.9579C311.369 74.484 310 75.4485 310 76.829V118C310 119.105 309.105 120 308 120H281.555C280.429 120 279.525 119.071 279.556 117.946L280.952 66.7661C280.979 65.7573 280.251 64.8861 279.253 64.7343C279.253 64.7343 266.395 61.5505 258 61.5001ZM92.7425 215.583C92.578 215.861 92.4938 216.166 92.4817 216.489C91.3819 245.969 90.3394 280.528 94.5 285.5C115 310 143.5 335 168.5 360C194.309 384.666 222.648 412.653 257.354 441.955C257.726 442.269 258.274 442.269 258.646 441.955C293.352 412.653 321.691 384.666 347.5 360C372.5 335 401 310 421.5 285.5C425.661 280.528 424.618 245.969 423.518 216.489C423.506 216.166 423.422 215.861 423.257 215.583C415.033 201.7 389.134 182.057 366.956 160.935C366.658 160.652 366.452 160.284 366.388 159.879C366.129 158.254 366.397 157.901 366.478 156.686C366.508 156.243 366.351 155.809 366.078 155.458C362.902 151.39 360.391 148.383 356.443 144.889C356.155 144.634 355.797 144.47 355.416 144.417C349.122 143.534 344.949 143.414 338.368 143.478C337.317 143.489 336.456 144.276 336.397 145.325C335.338 164.088 326.44 321.358 325.5 327C324.554 332.676 322.873 335.78 319.157 337.262C318.737 337.429 318.265 337.421 317.852 337.236C313.89 335.462 312.475 331.75 312 327C311.531 322.313 310.184 165.172 310.017 145.513C310.008 144.403 309.096 143.514 307.986 143.532L279.895 143.97C278.832 143.987 277.973 144.701 277.933 145.763C277.13 166.73 269.396 367.693 267.5 371.5C265.591 375.335 262.77 380.962 258.603 384.509C258.255 384.806 257.745 384.806 257.397 384.509C253.23 380.962 250.409 375.335 248.5 371.5C246.604 367.693 238.87 166.73 238.067 145.763C238.027 144.701 237.168 143.987 236.105 143.97L208.014 143.532C206.904 143.514 205.992 144.403 205.983 145.513C205.816 165.172 204.469 322.313 204 327C203.525 331.75 202.11 335.462 198.148 337.236C197.735 337.421 197.263 337.429 196.843 337.262C193.127 335.78 191.446 332.676 190.5 327C189.56 321.358 180.662 164.088 179.603 145.325C179.544 144.276 178.683 143.489 177.632 143.478C171.051 143.414 166.878 143.534 160.584 144.417C160.203 144.47 159.845 144.634 159.557 144.889C155.609 148.383 153.098 151.39 149.922 155.458C149.649 155.809 149.492 156.243 149.522 156.686C149.603 157.901 149.871 158.254 149.612 159.879C149.548 160.284 149.342 160.652 149.044 160.935C126.866 182.057 100.967 201.7 92.7425 215.583Z" fill="white"/>
</svg>
