<svg width="512" height="512" viewBox="0 0 512 512" fill="none" xmlns="http://www.w3.org/2000/svg">
<path d="M209.953 360.073C210.666 359.351 211.875 360.027 211.632 361.012L190.723 445.598C190.582 446.17 190.191 446.652 189.663 446.914C177.345 453.018 169.947 457.328 159.095 463.758C158.011 464.4 156.607 463.894 156.227 462.692C152.795 451.837 152.637 442.199 151.558 427.774C151.521 427.279 151.674 426.777 151.979 426.384C172.589 399.901 185.723 384.616 209.953 360.073Z" fill="white"/>
<path d="M222.74 379.51C222.226 378.877 221.215 379.101 221.011 379.89L199.31 463.801C199.12 464.536 199.362 465.314 199.935 465.812L242.82 503.041C243.471 503.607 244.485 503.137 244.475 502.275L243.504 415.898C243.502 415.635 243.445 415.372 243.342 415.131C236.366 398.877 230.637 389.257 222.74 379.51Z" fill="white"/>
<path d="M305.075 360.073C304.362 359.351 303.153 360.027 303.396 361.012L324.305 445.598C324.446 446.17 324.837 446.652 325.365 446.914C337.683 453.018 345.081 457.328 355.933 463.758C357.017 464.4 358.421 463.894 358.801 462.692C362.233 451.837 362.391 442.199 363.47 427.774C363.507 427.279 363.354 426.777 363.049 426.384C342.439 399.901 329.305 384.616 305.075 360.073Z" fill="white"/>
<path d="M292.288 379.51C292.802 378.877 293.813 379.101 294.017 379.89L315.718 463.801C315.908 464.536 315.666 465.314 315.093 465.812L272.209 503.041C271.557 503.607 270.543 503.137 270.553 502.275L271.524 415.898C271.527 415.635 271.583 415.372 271.686 415.131C278.662 398.877 284.391 389.257 292.288 379.51Z" fill="white"/>
<path d="M92.0033 119.385C91.6063 119.233 91.2198 119.636 91.3582 120.038C128.575 228.107 115.713 263.929 35.5445 281.557C35.0327 281.67 35.0073 282.415 35.5119 282.556C116.848 305.279 138.056 339.262 131.743 424.37C131.671 425.338 132.868 425.893 133.498 425.154C141.807 415.404 173.877 377.868 188.568 362.033C189.347 361.193 189.261 359.874 188.392 359.128C166.592 340.408 156.799 326.814 146.096 295.284C146.034 295.101 145.92 294.937 145.769 294.817C140.494 290.646 134.56 286.115 128.49 282.609C127.736 282.173 127.828 281.032 128.641 280.719C133.245 278.948 136.255 277.097 140.833 273.144C140.942 273.05 141.029 272.938 141.087 272.806C145.952 261.713 143.635 233.571 163.26 206.826C163.412 206.618 163.482 206.354 163.448 206.099C162.014 195.263 157.917 189.066 154.374 181.443C154.017 180.675 154.732 179.86 155.544 180.099C163.546 182.459 170.206 184.56 178.589 186.41C178.851 186.468 179.131 186.414 179.356 186.268C203.551 170.485 215.568 164.501 242.778 158.053C242.922 158.018 243.055 157.958 243.167 157.86C247.765 153.876 252.914 136.937 257.045 123.179C257.33 122.23 258.67 122.23 258.955 123.179C263.085 136.939 268.235 153.896 272.832 157.86C272.944 157.957 273.078 158.018 273.222 158.053C300.432 164.501 312.449 170.485 336.644 186.268C336.869 186.414 337.149 186.468 337.411 186.41C345.794 184.56 352.454 182.459 360.456 180.099C361.268 179.86 361.983 180.675 361.626 181.443C358.083 189.066 353.986 195.263 352.552 206.099C352.518 206.354 352.588 206.618 352.74 206.826C372.365 233.571 370.048 261.713 374.913 272.806C374.971 272.938 375.058 273.05 375.167 273.144C379.745 277.097 382.755 278.948 387.359 280.719C388.172 281.032 388.264 282.173 387.51 282.609C381.44 286.115 375.506 290.646 370.231 294.817C370.08 294.937 369.966 295.101 369.904 295.284C359.201 326.814 349.408 340.408 327.608 359.128C326.739 359.874 326.653 361.193 327.432 362.033C342.123 377.868 374.193 415.404 382.502 425.154C383.132 425.893 384.329 425.339 384.257 424.37C377.92 339.262 398.168 305.279 479.488 282.556C479.993 282.415 479.967 281.67 479.455 281.557C399.304 263.929 387.419 228.107 424.642 120.038C424.78 119.636 424.394 119.233 423.997 119.385C385.307 134.229 345.29 147.373 321 132.689C296.263 119.144 273.973 72.4947 258.491 10.4812C258.364 9.97425 257.636 9.97425 257.509 10.4812C242.027 72.4947 219.737 119.144 195 132.689C170.71 147.373 130.693 134.229 92.0033 119.385Z" fill="white"/>
<path d="M258 165.5C246.172 206.008 241 229 229 229.5C219.32 229.903 203.132 223.148 197.235 220.522C196.415 220.156 195.538 220.96 195.847 221.803C198.26 228.398 205 247.037 205 249.5C205 252.5 203.004 254.5 201.366 259C199.728 263.5 200 266 197.5 268.5C195.126 270.874 181.493 275.542 165.993 281.103C165.125 281.415 165.106 282.632 165.965 282.966C181.415 288.979 196.576 294.126 198 296.5C199.5 299 200.4 302.114 201.5 304.5C202.655 307.006 204 309 205 313C205.957 316.827 202.616 328.919 199.868 341.758C199.705 342.521 200.443 343.165 201.179 342.904C214.308 338.258 225.663 334.561 229.5 336C233.5 337.5 237.5 338.773 242 340C246.5 341.227 252.696 359.339 258 374C263.304 359.339 269.5 341.227 274 340C278.5 338.773 282.5 337.5 286.5 336C290.337 334.561 301.692 338.258 314.821 342.904C315.557 343.165 316.295 342.521 316.132 341.758C313.384 328.919 310.043 316.827 311 313C312 309 313.345 307.006 314.5 304.5C315.6 302.114 316.5 299 318 296.5C319.424 294.126 334.585 288.979 350.035 282.966C350.894 282.632 350.875 281.415 350.007 281.103C334.507 275.542 320.874 270.874 318.5 268.5C316 266 316.272 263.5 314.634 259C312.996 254.5 311 252.5 311 249.5C311 247.037 317.74 228.398 320.153 221.803C320.462 220.96 319.585 220.156 318.765 220.522C312.868 223.148 296.68 229.903 287 229.5C275 229 269.828 206.008 258 165.5Z" fill="white"/>
</svg>
