<svg width="512" height="512" viewBox="0 0 512 512" fill="none" xmlns="http://www.w3.org/2000/svg">
<path d="M152 468.277C169.5 482.777 221 482.277 231.5 469.777C242 457.277 244.231 447.549 242 434.277C239.396 418.782 228.5 406.277 221 406.277C213.5 406.277 191.587 419.414 173.5 413.277C156.012 407.343 142.895 385.307 121.257 360.805C119.962 359.34 119.889 357.144 121.155 355.654C136.033 338.148 151.947 331.846 171.5 333.277C191.635 334.75 219.487 348.764 215.736 373.898C215.635 374.573 214.871 374.924 214.274 374.593C185.724 358.738 171.815 356.387 162.518 360.23C161.596 360.611 161.899 361.887 162.891 361.993C185.034 364.36 202.493 384.832 223.946 393.034C225.042 393.453 226.248 392.76 226.536 391.622C243.918 322.926 275.095 311.158 314.999 287.382C315.898 286.846 315.472 285.482 314.429 285.562C288.747 287.529 262.712 293.334 231.195 342.683C230.846 343.229 230.061 343.322 229.618 342.85C212.01 324.093 208.203 303.968 220.5 285.277C233 266.277 265 254.777 293 254.777C320.442 254.777 350.951 272.345 364.683 293.483C365.077 294.089 364.683 294.889 363.972 295.014C328.193 301.284 317.236 354.416 298.5 364.277C279.5 374.277 269 365.332 256 366.777C243 368.221 238 382.961 242 397.777C246 412.592 274.5 442.777 277 452.277C279.5 461.777 280 468.305 289.5 473.777C299 479.249 317.5 480.277 338.5 477.777C350.547 476.342 375.374 460.783 389.5 434.277C403.626 407.77 416 362.277 416 343.777C416 325.277 416 312.777 393.5 283.777C382.08 269.057 354.944 243.988 327 230.777C299.89 217.96 273.019 215.777 258 215.777C227.5 215.777 187.5 230.441 159.5 251.277C131.5 272.112 93.3103 309.277 88.5 326.777C85.749 336.785 89.3651 367.633 104 399.777C114.955 423.838 134.5 453.777 152 468.277Z" fill="white"/>
<path d="M420 275.277C432 275.277 442.5 263.777 442.5 247.277C442.5 220.777 423.5 183.277 408 183.277C392.5 183.277 379 199.277 379 220.777C379 251.777 396 275.277 420 275.277Z" fill="white"/>
<path d="M344 210.277C362.908 210.277 371.359 198.777 372 178.277C372.734 154.777 369.5 96.7766 341 97.7766C312.5 98.7766 305.698 138.277 307 161.277C308.613 189.777 320.5 210.277 344 210.277Z" fill="white"/>
<path d="M261 75.7765C288.147 74.1077 296.041 109.084 295.5 136.277C295.001 161.363 285.5 193.277 264 193.277C242.5 193.277 224.793 157.659 226.5 129.277C228.207 100.894 236.395 77.2891 261 75.7765Z" fill="white"/>
<path d="M183 98.2766C156.5 97.0719 136.5 127.277 136.5 157.277C136.5 181.277 151 217.777 172.5 217.777C196 217.777 217.469 182.14 215.5 151.277C213.809 124.777 205 99.2766 183 98.2766Z" fill="white"/>
<path d="M103.5 173.277C125 174.277 131 190.047 131 207.277C131 224.506 121.574 271.277 94.5 271.277C81.5 271.277 69.9576 252.276 69 229.777C67.9534 205.186 82.5227 172.301 103.5 173.277Z" fill="white"/>
<path d="M402.212 132.722C401.612 132.033 400.485 132.451 400.484 133.365C400.461 147.601 401.465 159.292 399.638 167.206C399.557 167.56 399.666 167.934 399.933 168.18C407.965 175.594 415.533 178.525 421.788 176.974C422.215 176.868 422.501 176.473 422.496 176.034C422.324 160.526 416.7 149.359 402.212 132.722Z" fill="white"/>
<path d="M327.048 39.95C326.339 39.3615 325.288 39.9591 325.443 40.8673C326.749 48.5454 330.5 70.7991 330.5 73.2765C330.5 75.0443 330.153 77.3329 329.868 78.9147C329.662 80.0557 330.083 81.2351 331.01 81.9315C338.921 87.8765 344.072 89.8992 352.369 89.3247C352.753 89.2981 353.089 89.0464 353.216 88.6824C358.059 74.7268 348.316 57.6084 327.048 39.95Z" fill="white"/>
<path d="M235.5 51.7765C235.5 64.7765 240.028 71.2734 244.5 70.7765C252.741 69.8609 258.071 66.1061 266.183 59.6341C267.468 58.6089 267.667 56.7384 266.932 55.2684C263.084 47.5806 262.752 33.1138 260.685 8.91415C260.613 8.0686 259.588 7.69063 258.996 8.29855C244.145 23.5457 235.5 39.1955 235.5 51.7765Z" fill="white"/>
<path d="M152.809 92.5837C152.921 92.9984 153.291 93.2927 153.72 93.304C163.125 93.5518 169.931 89.3044 179.348 82.732C179.729 82.4663 179.877 81.9737 179.715 81.5385C176.126 71.8832 175.978 57.7039 175.097 37.4531C175.06 36.5991 174.029 36.195 173.416 36.7904C149.813 59.6944 148.626 77.0961 152.809 92.5837Z" fill="white"/>
<path d="M94.3316 160.328C93.7977 160.319 93.3079 160.042 92.9947 159.609C84.4606 147.823 90.9863 128.863 106.396 112.433C106.901 111.895 107.785 112.078 107.995 112.786C110.686 121.848 111.141 138.194 113.436 145.313C113.969 146.966 113.908 150.624 112.553 151.71C104.725 157.985 98.3719 160.393 94.3316 160.328Z" fill="white"/>
</svg>
