<svg width="512" height="512" viewBox="0 0 512 512" fill="none" xmlns="http://www.w3.org/2000/svg">
<path fill-rule="evenodd" clip-rule="evenodd" d="M258.5 504C144.995 505.716 142.959 435.549 113.5 411C95.5 396 70.0513 377.862 64 358.5C56.4992 334.5 71.5 305 69 285C66 261 43.35 243 46.5 211.5C48.5364 191.136 66.3704 168.892 86.5978 162.092C87.3776 161.829 88.0859 162.603 87.8102 163.378C76.365 195.556 85.8616 222.5 104.5 222.5C128 222.5 86.5938 159 119 116.5C142.034 86.2922 178 69.4375 204.5 59.5C231 49.5625 235.5 35.7618 235.5 31C235.5 22.1113 231.511 17.013 224.901 9.98032C224.332 9.37494 224.713 8.37894 225.541 8.30747C268.38 4.60876 296.054 23.9509 299.5 52.5C304.509 94 248.178 133.482 280 146.5C291 151 305.133 140.5 307 126.5C308.867 112.5 315.934 95.4141 327.5 88C347.09 75.4423 370.823 73.6154 386.386 85.674C387.05 86.1884 386.797 87.2631 386.007 87.5484C371.028 92.9595 340.543 130.145 365 176C373.438 191.822 392.045 195.818 401.5 190C407.801 186.123 412.692 161.573 397.502 133.203C397.044 132.347 397.934 131.375 398.815 131.782C431.935 147.072 457.097 166.224 459 193.5C460.43 214 442.558 231.994 444 246.5C446.536 272.019 469.182 279 469.5 320C469.663 341 462.5 362 446 382C429.457 402.052 404.477 418.556 393.5 432C349 486.5 328.992 502.934 258.5 504ZM196 408C196.467 381.5 221 337.5 257 293C293 337.5 317.532 381.5 318 408C318.468 434.5 294 464 257 464C220 464 195.532 434.5 196 408ZM315.5 268C315.5 253 310.5 241.884 296.5 234C276.974 223.004 251.5 219.5 229 198.5C215.278 185.173 204.727 165.916 204.504 136.941C204.501 136.541 204.059 136.295 203.727 136.518C186.287 148.254 165.864 165.763 164.5 183.5C162 216 175.5 234.5 175.5 253C175.5 280.031 157 299 142.5 315.5C128.114 331.87 124.861 354.644 132.457 375.195C132.662 375.749 131.901 376.178 131.562 375.695C120.66 360.12 117.797 343.886 128 316.5C137.5 291 158.5 277.5 158.5 257C158.5 236.5 141.518 201.5 148.5 178.5C161.297 136.346 193.757 123.783 232.667 101.757C233.087 101.519 233.573 101.959 233.376 102.4C221.252 129.686 214.207 149.905 235 180C242.561 190.943 253.819 198.762 272.5 205.5C303 216.5 334.204 233.591 333 265.5C331.881 295.156 340 302 353 302C359.948 302 378.718 299.537 369.218 250.118C369.137 249.694 369.603 249.354 369.973 249.574C430.477 285.546 428.282 336.741 387.5 382C408.797 342.429 410.439 319.945 389.84 287.102C389.361 286.34 388.185 286.55 387.98 287.426C383.488 306.59 371.181 319.395 351.5 318.5C329.5 317.5 315.5 304.514 315.5 268Z" fill="white"/>
</svg>
