<svg width="512" height="512" viewBox="0 0 512 512" fill="none" xmlns="http://www.w3.org/2000/svg">
<path d="M455.105 119.102C454.929 118.057 456.272 117.475 456.882 118.342C484.679 157.853 501 206.02 501 258C501 392.205 392.205 501 258 501C213.432 501 169.822 488.078 133.767 467.063C132.819 466.511 133.347 465.062 134.434 465.217C196.435 474.027 259.016 457.653 299.339 406C327.678 369.699 339.883 319.275 325.5 259.5C341.671 271.865 350.616 283.498 366.5 307C376.5 269 374.601 234.58 360 187C395.535 211.578 410.683 231.899 430.5 278C459.462 222.41 465.582 181.321 455.105 119.102Z" fill="white"/>
<path d="M258 15C312.022 15 361.927 32.6286 402.276 62.4468C403.201 63.1305 402.389 64.6271 401.295 64.2708C358.475 50.3226 301.035 56.6295 260 79C210.969 105.73 175.361 153.675 162 208.5C154.535 183.797 152.279 166.187 152.5 134.5C61.6713 184.375 26.0876 272.065 46.548 373.838C46.7731 374.958 45.2699 375.55 44.7214 374.548C25.7732 339.947 15 300.232 15 258C15 123.795 123.795 15 258 15Z" fill="white"/>
<path d="M389.105 192.376C424.983 155.128 429.019 114.961 452.876 64.3599C453.267 63.5316 452.449 62.6315 451.599 62.9726C418.478 76.2688 367.259 92.0379 337 114C294.695 145.853 249.913 209.414 188.845 282.49C188.335 283.1 187.51 283.356 186.743 283.144C184.245 282.454 178.669 281 176 281C173.278 281 166.022 288.255 162.929 291.483C162.142 292.305 160.825 292.326 160.018 291.524C149.824 281.387 143.593 275.621 133.194 266.601C132.755 266.221 132.505 265.668 132.479 265.089C132.149 257.603 127.937 246.96 125.5 246C122.962 245 108.917 248 102.5 255C96.0833 262 92 277 94 279C95.9311 280.931 104.855 282.862 112.669 283.443C113.201 283.483 113.697 283.726 114.05 284.126C127.944 299.852 144.592 313.15 145.5 324.5C146.42 336 129 341.5 120 353.5C110.936 365.586 109.5 377 103.5 385C99.2547 390.66 93.6889 392.201 89 397.5C84.3103 402.799 80.2015 412.112 78.6542 415.865C78.2699 416.797 77.2712 417.325 76.2859 417.111C71.9585 416.171 60.7083 413.995 57.5 416C53.5 418.5 51.3356 443.5 63 454C74.6644 464.5 97.5 461.5 100 458.5C102.008 456.091 99.178 444.328 97.986 439.791C97.7194 438.776 98.2615 437.719 99.2365 437.331C103.15 435.774 112.728 431.683 118 427C123.609 422.018 123.809 416.236 130 412C139.5 405.5 152.617 403.119 164.5 393.5C176.382 383.881 179.308 371.768 188.5 370C200.764 367.642 227.267 397.767 230.229 401.186C230.416 401.401 230.541 401.641 230.618 401.916C233.103 410.728 234.547 421.016 237.5 422C240.5 423 254.5 419 261 413C267.5 407 270.118 393 269.5 390.5C268.903 388.087 259.157 383.991 251.339 383.535C250.802 383.504 250.293 383.279 249.927 382.886L223.933 355.035C223.153 354.2 223.227 352.879 224.079 352.118C227.542 349.02 235.5 341.521 235.5 338C235.5 334.991 233.711 331.535 232.526 329.575C231.979 328.67 232.137 327.475 232.953 326.803L356.038 225.381C356.322 225.146 356.455 224.772 356.381 224.411C351.374 199.685 343.421 179.811 333.5 156C353.943 168.049 365.605 176.57 387.794 192.493C388.196 192.782 388.761 192.732 389.105 192.376Z" fill="white"/>
</svg>
