<svg width="512" height="512" viewBox="0 0 512 512" fill="none" xmlns="http://www.w3.org/2000/svg">
<path d="M195.3 272.343C229.794 243.924 243.74 222.767 257.032 181.542C257.332 180.61 258.668 180.61 258.968 181.542C272.26 222.767 286.206 243.924 320.7 272.343C321.133 272.7 321.192 273.358 320.827 273.785C294.062 305.121 285.077 328.584 281.028 380.635C281.01 380.867 280.911 381.092 280.75 381.259L267.359 395.111C267.047 395.434 266.5 395.213 266.5 394.763V298.575C266.5 295.886 267.012 293.209 268.18 290.787C270.813 285.328 273.708 280.912 278.08 274.374C278.613 273.578 278.505 272.51 277.826 271.834C270.002 264.043 265.533 258.193 258.772 249.941C258.373 249.454 257.627 249.453 257.228 249.94C250.466 258.188 245.997 263.959 238.171 271.832C237.495 272.511 237.387 273.578 237.92 274.374C242.292 280.912 245.187 285.328 247.82 290.787C248.988 293.209 249.5 295.886 249.5 298.575V394.763C249.5 395.213 248.953 395.434 248.64 395.111L235.25 381.259C235.089 381.092 234.99 380.867 234.972 380.635C230.923 328.584 221.938 305.121 195.173 273.785C194.808 273.358 194.867 272.7 195.3 272.343Z" fill="white"/>
<path d="M230 481C225.5 492.5 235 500 258 500C281 500 290.5 492.5 286 481L499.886 293.974C500.548 293.395 500.756 292.452 500.389 291.652C494.358 278.49 488.8 270.794 480.906 266.476C480.342 266.167 479.66 266.175 479.092 266.477C473.404 269.506 470.287 271.913 465.5 277C463.925 270.439 461.387 264.843 457.938 259.921C457.539 259.351 456.691 259.384 456.31 259.966C446.282 275.262 441.145 280.734 433.927 285.568C433.513 285.846 433.004 285.403 433.21 284.949C439.569 270.923 441.873 262.069 442.939 246.068C442.962 245.719 442.801 245.378 442.512 245.18C433.748 239.169 422.808 234.037 409.914 228.595C409.249 228.314 408.515 228.83 408.522 229.552C409.291 310.55 353.62 353.731 294 390C281.285 397.735 267.5 408 258 421C248.5 408 234.715 397.735 222 390C162.38 353.731 106.709 310.55 107.478 229.552C107.485 228.83 106.751 228.314 106.086 228.595C98.7647 231.685 92.0733 234.675 86.0525 237.783C85.7138 237.958 85.5056 238.319 85.5153 238.7C86.0397 259.208 88.7434 267.94 92.4007 279.162C92.5606 279.653 91.9656 280.03 91.5927 279.673C81.8761 270.378 76.5171 262.352 70.5171 248.88C70.2528 248.287 69.5016 248.093 68.9938 248.498C59.7155 255.898 53.4339 264.775 50.5 277C45.7131 271.913 42.5958 269.506 36.9075 266.477C36.3403 266.175 35.6576 266.167 35.0938 266.476C27.1998 270.794 21.6419 278.49 15.6106 291.652C15.2444 292.452 15.4519 293.395 16.1136 293.974L230 481Z" fill="white"/>
<path d="M302.5 74.5C302.5 176.749 101.956 177.495 209.579 347.722C210.145 348.618 209.218 349.808 208.321 349.242C191.379 338.566 130 296.037 130 232.5C130 123.254 313.46 102.778 247.893 19.7276C247.369 19.0645 247.779 18.0077 248.623 18.0382C280.482 19.188 302.5 46.126 302.5 74.5Z" fill="white"/>
<path d="M305.698 122.6C344.453 144.124 382.647 173.387 385.5 230C388.13 282.198 347.448 324.027 300.352 349.239C299.446 349.723 298.531 348.64 299.084 347.774C353.016 263.357 333.778 218.263 294 179.5C286.901 172.582 279.274 166.439 271.528 160.762C276.099 156.785 280.598 152.677 284.863 148.414C292.579 140.703 299.837 132.192 305.698 122.6Z" fill="white"/>
<path d="M225.214 37.2755C225.984 37.1179 226.51 38.0015 226.184 38.7169C218.543 55.4232 221.868 67.8269 231.728 78.4249C224.665 85.7542 215.025 93.6388 203.129 102.847C202.839 103.071 202.547 103.294 202.255 103.52C198.592 96.7202 196.5 89.1778 196.5 80.5001C196.5 59.4002 211.218 40.1396 225.214 37.2755Z" fill="white"/>
</svg>
