<svg width="512" height="512" viewBox="0 0 512 512" fill="none" xmlns="http://www.w3.org/2000/svg">
<path d="M339.31 26.7031C338.709 25.8566 339.633 24.7703 340.561 25.2346C435.133 72.5347 479.559 193.936 364 269C263.845 334.058 82.6839 363.915 102.692 459.182C102.92 460.268 101.466 461.032 100.828 460.125C76.5165 425.577 72.3483 394.147 107.5 361C132.454 337.47 178.354 314.951 246.5 282.5C300 257.024 342.892 223.261 354.5 205.5C395.129 143.333 374.896 76.8529 339.31 26.7031Z" fill="white"/>
<path d="M231.542 404.264C210.38 416.486 198.75 424.376 180.197 439.99C179.639 440.46 179.765 441.359 180.425 441.668C226.273 463.179 251.574 474.724 310.005 506.194C310.672 506.553 311.5 506.082 311.5 505.325V443.611C311.5 443.236 311.284 442.889 310.95 442.718C281.18 427.478 263.765 418.977 232.478 404.226C232.182 404.086 231.826 404.1 231.542 404.264Z" fill="white"/>
<path d="M304.228 370.583L253.92 393.621C253.153 393.972 253.142 395.059 253.9 395.43C275.083 405.804 287.621 412.145 308.399 423.151C309.093 423.519 309.926 422.979 309.869 422.195C308.417 402.136 307.512 390.277 305.639 371.397C305.571 370.714 304.851 370.297 304.228 370.583Z" fill="white"/>
<path d="M152.409 500.407C153.014 502.399 150.585 504.059 149.06 502.642C121.661 477.158 114.112 458.229 123 432.5C137.191 395.088 182.698 372.676 242 347.5C296.828 324.223 366.978 298.248 415.423 247.697C416.089 247.002 417.251 247.575 417.116 248.529C406.051 326.573 310.941 348.869 281.5 362C179.227 407.615 134.13 440.319 152.409 500.407Z" fill="white"/>
<path d="M165.939 303.521C164.184 304.555 161.831 304.505 160.312 303.146C152.838 296.462 141.018 284.709 133.5 271C126.691 252.982 127.029 243.146 123 221C122.09 216 118.5 207.542 118.5 202C118.5 191.319 125.115 179.616 130.5 159C131.757 154.189 130.389 148.262 134.5 146.5C141.5 143.5 156 150.5 160 161.5C162.782 169.149 162.5 181.5 160.5 197.5C159.893 202.354 162.126 206.35 164.132 209.313C164.686 210.13 165.979 209.712 165.936 208.726C165.726 203.919 165.105 200.599 165.606 191.5C166.1 102.708 168.159 35.4541 178.5 29.0001C184.5 25.2554 199.947 25.5001 200.5 32.0001C204.469 78.6392 203.707 97.4253 205.459 139.03C205.481 139.565 205.923 140 206.458 140L209.527 140C210.069 140 210.512 139.556 210.527 139.015C212.645 62.5871 213.069 22.9757 216 16.0001C218.207 10.7464 224 7.00006 229 7C236 6.99992 241.813 12.0001 243.5 16.5001C245.067 20.6782 248.035 125.723 248.451 140.724C248.473 141.516 249.352 141.893 249.961 141.385C252.076 139.617 254.418 137.013 254.5 135C256.854 77.314 254.316 47.0001 257.5 39.0001C260.299 31.9667 263.62 30.6596 270 31.0001C276.38 31.3405 281.876 36.5001 283 41.5001C284.638 48.7846 284.695 90.3905 287.892 163.066C287.947 164.319 289.163 165.28 290.264 164.68C291.647 163.927 292.709 162.697 293.5 160.5C294.301 129.634 294.239 105.608 296.5 102.5C300.5 97.0001 306 95.8891 311 97.5001C318.192 99.8171 323.463 111 324 116.5C326 137 321.5 162.5 322 167C322.494 171.443 324.663 191.317 324.507 211.712C324.503 212.218 324.33 212.68 323.976 213.043C294.694 242.979 186.266 291.544 165.939 303.521Z" fill="white"/>
</svg>
