<svg width="512" height="512" viewBox="0 0 512 512" fill="none" xmlns="http://www.w3.org/2000/svg">
<path d="M253.787 140.611L228.75 251.885C228.1 254.775 228.1 257.775 228.75 260.665L253.787 371.939C254.021 372.98 255.504 372.98 255.738 371.939L280.775 260.665C281.425 257.775 281.425 254.775 280.775 251.885L255.738 140.611C255.504 139.57 254.021 139.57 253.787 140.611Z" fill="white"/>
<path d="M220.542 211.031C178.792 225.264 148.763 264.817 148.763 311.384C148.763 369.927 196.221 417.384 254.763 417.384C304.29 417.384 345.881 383.417 357.517 337.508C377.474 322.256 393.971 302.671 405.631 280.152C407.563 289.657 408.634 299.479 408.751 309.532L481.934 365.244C482.928 366.001 482.614 367.571 481.405 367.888L385.727 392.969C384.457 395.03 383.139 397.058 381.777 399.052L417.696 487.169C418.223 488.463 416.852 489.711 415.613 489.065L332.077 445.462C325.183 449.498 317.949 453.01 310.43 455.946C310.408 456.254 310.387 456.575 310.363 456.906C310.115 460.375 309.77 465.08 309.382 470.308C308.606 480.765 307.657 493.32 306.966 502.283C306.858 503.677 305.091 504.151 304.27 503.053L275.796 464.949C268.919 465.894 261.898 466.384 254.763 466.384C248.256 466.384 241.843 465.977 235.549 465.188L207.255 503.053C206.434 504.151 204.667 503.677 204.56 502.283C203.868 493.32 202.92 480.765 202.144 470.308C201.756 465.08 201.41 460.375 201.162 456.906C201.158 456.847 201.154 456.789 201.149 456.731C193.237 453.773 185.631 450.18 178.394 446.012L95.9121 489.065C94.6738 489.711 93.3022 488.463 93.8291 487.169L129.006 400.871C127.053 398.095 125.188 395.252 123.416 392.345L30.1201 367.888C28.9113 367.571 28.5976 366.001 29.5918 365.244L100.764 311.062C100.921 233.221 158.088 168.854 232.475 158L220.542 211.031Z" fill="white"/>
<path d="M277.05 158C301.412 161.554 323.926 170.85 343.196 184.478C344.224 189.92 344.763 195.535 344.763 201.275C344.763 215.97 341.238 229.847 334.988 242.104C322.811 228.016 306.987 217.169 288.982 211.031L277.05 158Z" fill="white"/>
<path d="M174.536 270.556C186.713 284.643 202.537 295.491 220.542 301.629L232.475 354.66C208.113 351.105 185.598 341.81 166.328 328.182C165.301 322.74 164.763 317.125 164.763 311.385C164.763 296.69 168.286 282.813 174.536 270.556Z" fill="white"/>
<path d="M304.271 9.60629C305.091 8.50835 306.858 8.98292 306.966 10.3768C307.657 19.3391 308.606 31.8944 309.382 42.3514C309.77 47.5799 310.115 52.285 310.363 55.7538C310.387 56.0848 310.408 56.4052 310.43 56.7137C317.949 59.6491 325.183 63.1613 332.077 67.1971L415.613 23.5946C416.852 22.9485 418.223 24.1966 417.696 25.4901L381.777 113.607C383.139 115.602 384.457 117.63 385.727 119.69L481.405 144.771C482.614 145.089 482.928 146.659 481.934 147.416L408.751 203.128C407.853 280.281 350.949 343.877 277.05 354.66L288.982 301.629C330.733 287.396 360.763 247.843 360.763 201.275C360.763 142.733 313.305 95.2753 254.763 95.2752C205.236 95.2752 163.643 129.242 152.007 175.151C132.049 190.404 115.552 209.988 103.893 232.507C101.863 222.52 100.785 212.183 100.764 201.598L29.5918 147.416C28.5976 146.659 28.9113 145.089 30.1201 144.771L123.416 120.314C125.188 117.408 127.053 114.565 129.006 111.789L93.8291 25.4901C93.3022 24.1966 94.6738 22.9486 95.9121 23.5946L178.394 66.6473C185.631 62.4794 193.237 58.8865 201.149 55.9286C201.154 55.8707 201.158 55.8123 201.162 55.7538C201.41 52.285 201.756 47.5799 202.144 42.3514C202.92 31.8944 203.868 19.3391 204.56 10.3768C204.667 8.98292 206.434 8.50834 207.255 9.60629L235.549 47.4715C241.843 46.683 248.256 46.2752 254.763 46.2752C261.898 46.2752 268.919 46.7655 275.796 47.7108L304.271 9.60629Z" fill="white"/>
</svg>
