<svg width="512" height="512" viewBox="0 0 512 512" fill="none" xmlns="http://www.w3.org/2000/svg">
<path d="M257.86 71.4867C256.774 70.6121 255.226 70.6121 254.14 71.4867C223.994 95.7677 198.209 125.041 186.15 131.658C185.725 131.892 185.241 131.932 184.772 131.809L133.689 118.442C132.941 118.246 132.267 118.944 132.48 119.687C142.009 152.845 154.08 175.032 180.164 214.917C180.783 215.864 182.254 215.218 181.97 214.123C176.398 192.636 173.09 178.69 168.804 155.643C168.666 154.901 169.366 154.276 170.08 154.519C178.584 157.425 187.309 162.097 193.425 164.996C194.087 165.31 194.868 165.227 195.453 164.785C222.463 144.389 242.162 118.453 256 114.5C269.838 118.453 289.537 144.389 316.547 164.785C317.132 165.227 317.913 165.311 318.575 164.997C324.691 162.097 333.416 157.426 341.92 154.52C342.634 154.276 343.334 154.901 343.196 155.643C338.91 178.69 335.602 192.636 330.03 214.123C329.746 215.219 331.217 215.864 331.836 214.917C357.92 175.032 369.991 152.845 379.52 119.687C379.733 118.944 379.059 118.246 378.311 118.442L327.228 131.81C326.759 131.932 326.275 131.892 325.85 131.659C313.791 125.041 288.006 95.7677 257.86 71.4867Z" fill="white"/>
<path fill-rule="evenodd" clip-rule="evenodd" d="M110.635 210.222C111.288 211.037 110.615 211.717 109.833 211.026C95.4967 198.36 66.5501 156.535 45.1162 120.863C44.6757 120.13 43.587 120.255 43.3339 121.072C31.6816 158.694 40.3388 207.897 85.7809 255.674C86.5601 256.494 85.6199 257.787 84.6197 257.26C57.5587 243 37.9417 225.345 9.7416 204.296C9.05835 203.786 8.09044 204.312 8.15815 205.162C12.1728 255.559 38.7613 298.311 106.739 318.632C107.784 318.944 107.677 320.473 106.593 320.59C76.9724 323.798 58.6869 319.015 35.0656 305.041C34.2393 304.552 33.257 305.385 33.6243 306.272C46.1918 336.626 65.6765 362.323 121 373C123.83 373.546 128.621 374.516 132.731 376.718C133.602 377.185 133.198 378.334 132.212 378.263L89.6476 375.191C88.7275 375.125 88.2318 376.246 88.8839 376.898C119.361 407.391 135.291 412.584 158 405C183.946 431.348 201.51 445.301 229.528 463.88C230.43 464.478 231.5 463.416 230.911 462.509C197.17 410.56 171.171 372.426 156 334.5C153.669 328.672 150.734 274.841 149.541 251.128C149.48 249.91 151.047 249.724 151.279 250.921C156.544 278.042 161.905 316.584 171 338C186.778 375.152 218.609 417.816 254.446 462.082C255.245 463.07 256.755 463.07 257.554 462.082C293.391 417.816 325.222 375.152 341 338C350.095 316.584 355.456 278.042 360.721 250.921C360.953 249.724 362.52 249.911 362.459 251.128C361.266 274.842 358.331 328.672 356 334.5C340.829 372.426 314.829 410.56 281.089 462.509C280.5 463.417 281.57 464.478 282.472 463.881C310.49 445.301 328.054 431.348 354 405C376.709 412.584 392.639 407.391 423.116 376.898C423.768 376.246 423.273 375.125 422.352 375.191L379.788 378.263C378.802 378.334 378.398 377.185 379.269 376.718C383.379 374.517 388.17 373.546 391 373C446.323 362.324 465.808 336.626 478.376 306.272C478.743 305.385 477.761 304.552 476.934 305.041C453.313 319.016 435.028 323.799 405.407 320.59C404.323 320.473 404.216 318.945 405.261 318.632C473.239 298.311 499.827 255.56 503.842 205.162C503.91 204.312 502.942 203.786 502.258 204.296C474.058 225.345 454.441 243 427.38 257.26C426.38 257.787 425.44 256.494 426.219 255.675C471.661 207.897 480.318 158.694 468.666 121.072C468.413 120.255 467.324 120.13 466.884 120.864C445.45 156.535 416.503 198.36 402.167 211.026C401.385 211.717 400.712 211.037 401.365 210.222C406.026 204.404 415.486 193.842 422 178C435.873 144.261 444.294 91.7906 416.197 53.5901C415.711 52.9288 414.679 53.1254 414.452 53.9144C394.187 124.52 371.043 179.647 340 219.5C316.052 250.244 291.5 264.5 256 290C220.5 264.5 195.948 250.244 172 219.5C140.957 179.647 117.813 124.52 97.5477 53.9142C97.3213 53.1252 96.2893 52.9286 95.8029 53.5898C67.7061 91.7904 76.1275 144.26 90 178C96.5139 193.842 105.974 204.404 110.635 210.222ZM184.5 313C202.856 359 235.5 400.5 256 422.5C276.5 400.5 309.144 359 327.5 313C329.78 307.286 328.229 291.624 327.589 278.459C327.549 277.643 326.594 277.218 325.952 277.724C300.313 297.944 284.319 308.109 257.076 325.32C256.424 325.732 255.576 325.732 254.923 325.32C227.681 308.109 211.687 297.943 186.048 277.723C185.406 277.217 184.451 277.642 184.411 278.459C183.771 291.624 182.22 307.286 184.5 313Z" fill="white"/>
</svg>
