<svg width="512" height="512" viewBox="0 0 512 512" fill="none" xmlns="http://www.w3.org/2000/svg">
<path fill-rule="evenodd" clip-rule="evenodd" d="M242 491.5C239.791 491.5 238 489.709 238 487.5V478C238 476.895 237.105 476 236 476H225C223.895 476 223 476.895 223 478V487.616C223 489.779 221.293 491.549 219.13 491.604C210.115 491.831 188.268 492.291 185.5 491.5C182 490.5 176 481.5 176 476.5C176 473.437 185.194 464.746 192.317 458.011C196.823 453.751 200.5 450.275 200.5 449.5C200.5 448.833 200.523 448.182 200.546 447.531C200.592 446.228 200.639 444.925 200.5 443.5C200.411 442.59 195.958 438.558 190.833 433.919C183.921 427.661 175.787 420.297 175.5 418C175 414 180 403.921 184.5 401.5C188.06 399.585 209.462 400.387 218.244 400.806C220.361 400.907 222 402.655 222 404.774V414.5C222 415.605 222.895 416.5 224 416.5H235C236.105 416.5 237 415.605 237 414.5V372.702C237 372.247 237.155 371.807 237.438 371.452L240.562 367.548C240.845 367.193 241 366.753 241 366.298V254.65C241 253.692 240.327 252.869 239.389 252.676C235.356 251.848 225.003 249.603 223 248C220.5 246 217.212 227 219 225C219.804 224.101 223.424 224.212 227.393 224.335C232.248 224.485 237.624 224.651 239 223C240.25 221.5 241.279 214.615 240 209.5C239.204 206.314 234.65 200.992 227.232 192.322C225.337 190.106 223.254 187.673 221 185C216.181 179.287 210.909 173.325 206.04 167.82C196.496 157.028 188.5 147.987 188.5 146C188.5 143.51 200.216 132.405 211.061 122.125C213.28 120.022 215.462 117.953 217.5 116C219.063 114.502 220.601 112.978 222.132 111.461C232.355 101.333 242.28 91.5 257.5 91.5C272.72 91.5 282.645 101.333 292.868 111.461C294.399 112.978 295.937 114.502 297.5 116C299.538 117.953 301.72 120.022 303.939 122.125C314.784 132.405 326.5 143.51 326.5 146C326.5 147.987 318.505 157.028 308.96 167.82C304.091 173.325 298.819 179.287 294 185C291.746 187.673 289.663 190.106 287.768 192.322C280.35 200.992 275.797 206.314 275 209.5C273.721 214.615 274.75 221.5 276 223C277.376 224.651 282.752 224.485 287.607 224.335C291.576 224.212 295.196 224.101 296 225C297.789 227 294.5 246 292 248C290.114 249.509 279.941 251.587 275.391 252.517C275.108 252.574 274.847 252.628 274.611 252.676C273.673 252.869 273 253.692 273 254.65V366.298C273 366.753 273.155 367.193 273.438 367.548L277.562 371.452C277.845 371.807 278 372.247 278 372.702L277 487.5C277 489.709 275.209 491.5 273 491.5H242ZM223.5 148.5C223.5 142.5 245.5 119 257.5 119C269.5 119 291.5 142.5 291.5 148.5C291.5 154.5 269.043 179 257.5 179C245.957 179 223.5 154.5 223.5 148.5Z" fill="white"/>
<path d="M237.578 21.9482C238.014 21.0634 239.345 21.26 239.494 22.2353L247.923 77.456C230.996 80.8973 219.575 92.8792 211.575 100.806C210.029 102.337 208.58 103.773 207.122 105.17C205.119 107.089 202.967 109.129 200.742 111.238C195.386 116.315 189.52 121.872 185 126.485C182.765 128.765 180.585 131.092 178.883 133.175C178.054 134.19 177.064 135.478 176.206 136.892C175.774 137.601 175.207 138.617 174.711 139.853C174.277 140.935 173.501 143.148 173.501 146C173.501 150.166 175.218 153.337 175.541 153.96C176.199 155.233 176.955 156.387 177.574 157.279C178.841 159.106 180.462 161.148 182.134 163.17C185.519 167.261 190.094 172.432 194.803 177.757C199.695 183.288 204.849 189.116 209.535 194.672C211.827 197.39 213.942 199.861 215.834 202.073C218.314 204.971 220.32 207.321 221.935 209.278C221.728 209.285 221.522 209.29 221.32 209.3C220.229 209.35 218.59 209.469 216.845 209.855C215.834 210.08 211.628 210.989 208.153 214.64L207.819 215.001C205.57 217.516 204.683 220.143 204.334 221.325C203.919 222.733 203.736 224 203.641 224.887C203.451 226.67 203.47 228.43 203.535 229.842C203.668 232.757 204.088 236.042 204.613 239.064C205.139 242.098 205.854 245.345 206.709 248.178C207.128 249.568 207.678 251.181 208.387 252.738C208.792 253.626 210.32 257.066 213.629 259.713C216.464 261.98 219.935 263.125 220.995 263.486C222.601 264.034 224.355 264.535 226.001 264.971V338.072L33.9009 491.489C32.9704 492.232 31.7539 491.017 32.4946 490.085C87.9312 420.337 132.924 364.14 199 283L147.143 242.29C146.482 241.771 146.782 240.695 147.593 240.477C191.172 228.746 132.446 188.5 129 188.5C124.25 188.503 78.9439 226.809 76.0835 246.089C75.8766 247.484 74.5217 248.6 73.1587 248.238C55.355 243.515 43.0582 241.174 23.0728 237.556C22.116 237.382 21.9238 236.075 22.7935 235.64C60.2629 216.902 104.999 175.342 105 169C105 163.235 86.4996 160.5 86.4995 157C86.4995 154.702 91.7813 148.589 94.2525 145.854C94.9517 145.081 94.9553 143.895 94.2573 143.12C73.3853 119.942 61.432 106.662 57.9995 89.5C57.4993 87 43.4157 85.2916 30.4995 84C23.5001 83.2995 23.2357 71.1915 26.9995 64.5C31.4995 56.5001 45.4997 40.5002 58.9995 37.5C64.5567 36.2651 71.4995 37.0001 72.9995 42C76.1032 52.3454 74.4776 69.0938 78.4995 70C98.0175 74.3915 110.869 83.5452 133.784 106.29C134.673 107.173 136.157 107.049 136.897 106.037C139.212 102.874 143.807 97.0008 146 97C148.999 97 154 116.499 158.5 116.5C162.919 116.5 211.22 75.5112 237.578 21.9482Z" fill="white"/>
<path d="M274.422 21.9482C273.986 21.0634 272.655 21.26 272.506 22.2353L264.077 77.456C281.004 80.8973 292.425 92.8792 300.425 100.806C301.971 102.337 303.42 103.773 304.878 105.17C306.881 107.089 309.033 109.129 311.258 111.238C316.614 116.315 322.48 121.872 327 126.485C329.235 128.765 331.415 131.092 333.117 133.175C333.946 134.19 334.936 135.478 335.794 136.892C336.226 137.601 336.793 138.617 337.289 139.853C337.723 140.935 338.5 143.148 338.5 146C338.5 150.166 336.782 153.337 336.459 153.96C335.801 155.233 335.045 156.387 334.426 157.279C333.159 159.106 331.538 161.148 329.866 163.17C326.481 167.261 321.906 172.432 317.197 177.757C312.305 183.288 307.151 189.116 302.465 194.672C300.173 197.39 298.058 199.861 296.166 202.073C293.686 204.971 291.68 207.321 290.065 209.278C290.272 209.285 290.478 209.29 290.68 209.3C291.771 209.35 293.41 209.469 295.155 209.855C296.166 210.08 300.372 210.989 303.847 214.64L304.181 215.001C306.43 217.516 307.317 220.143 307.666 221.325C308.081 222.733 308.264 224 308.359 224.887C308.549 226.67 308.53 228.43 308.465 229.842C308.332 232.757 307.912 236.042 307.387 239.064C306.861 242.098 306.146 245.345 305.292 248.178C304.872 249.568 304.322 251.181 303.613 252.738C303.208 253.626 301.68 257.066 298.371 259.713C295.536 261.98 292.065 263.125 291.005 263.486C289.399 264.034 287.645 264.535 286 264.971V338.072L478.099 491.489C479.03 492.232 480.246 491.017 479.505 490.085C424.069 420.337 379.076 364.14 313 283L364.857 242.29C365.518 241.771 365.218 240.695 364.407 240.477C320.828 228.746 379.554 188.5 383 188.5C387.75 188.503 433.056 226.809 435.916 246.089C436.123 247.484 437.478 248.6 438.841 248.238C456.645 243.515 468.942 241.174 488.927 237.556C489.884 237.382 490.076 236.075 489.207 235.64C451.737 216.902 407.001 175.342 407 169C407 163.235 425.5 160.5 425.5 157C425.5 154.702 420.219 148.589 417.748 145.854C417.048 145.081 417.045 143.895 417.743 143.12C438.615 119.942 450.568 106.662 454 89.5C454.501 87 468.584 85.2916 481.5 84C488.5 83.2995 488.764 71.1915 485 64.5C480.501 56.5001 466.5 40.5002 453 37.5C447.443 36.2651 440.501 37.0001 439 42C435.897 52.3454 437.522 69.0938 433.5 70C413.982 74.3915 401.131 83.5452 378.216 106.29C377.327 107.173 375.843 107.049 375.103 106.037C372.788 102.874 368.193 97.0008 366 97C363.001 97 358 116.499 353.5 116.5C349.081 116.5 300.78 75.5112 274.422 21.9482Z" fill="white"/>
</svg>
