<svg width="512" height="512" viewBox="0 0 512 512" fill="none" xmlns="http://www.w3.org/2000/svg">
<path d="M115.701 177.248C116.039 176.64 116.88 176.561 117.349 177.075C118.574 178.418 119.923 179.706 121.401 180.93C126.836 185.43 133.348 188.446 140.519 190.45C141.154 190.627 141.46 191.353 141.139 191.928C130.541 210.886 124.5 232.737 124.5 255.999C124.5 328.625 183.375 387.499 256 387.499C281.917 387.499 306.081 380 326.445 367.055C327.116 366.629 328.001 367.108 328.001 367.903V392.171C328.001 394.15 328.326 396.095 328.948 397.934C329.113 398.421 328.912 398.963 328.454 399.196C316.459 405.293 303.598 409.925 290.105 412.854C289.935 412.891 289.796 413.013 289.737 413.173L257.409 501.603C256.929 502.915 255.072 502.916 254.592 501.603L222.263 413.173C222.204 413.013 222.065 412.891 221.894 412.854C160.756 399.582 112.593 351.371 99.2167 290.098C99.1794 289.928 99.0582 289.79 98.8983 289.731L10.4862 257.409C9.17299 256.929 9.17312 255.072 10.4862 254.592L98.6659 222.352C98.827 222.293 98.9489 222.152 98.9852 221.981C102.343 206.076 108.041 191.039 115.701 177.248Z" fill="white"/>
<path fill-rule="evenodd" clip-rule="evenodd" d="M28.8624 30.163C28.5364 29.3491 29.3485 28.5369 30.1625 28.863C69.9424 44.8007 94.8634 58.7851 137.143 88.685C138.123 89.3779 138.279 90.7835 137.52 91.7133C129.495 101.55 131.933 108.81 140.343 121.978C140.743 122.605 141.477 122.954 142.219 122.899C166.531 121.096 176.362 133.814 177.962 165.218C177.987 165.715 178.194 166.196 178.545 166.548L187.974 176.013C200.289 165.53 215.053 157.84 231.29 153.923C235.206 152.979 238.882 151.139 241.754 148.314L255.299 134.989C255.688 134.606 256.312 134.606 256.701 134.989L270.245 148.314C273.117 151.14 276.793 152.979 280.71 153.923C326.777 165.035 361 206.522 361 256C361 282.091 351.482 305.957 335.731 324.321L354.751 343.412C355.126 343.788 355.636 344 356.168 344H392.172C392.702 344.001 393.211 344.211 393.586 344.586L414.793 365.793C415.422 366.423 414.977 367.5 414.086 367.5H387.914C387.023 367.501 386.577 368.578 387.207 369.207L392.207 374.207C392.394 374.395 392.649 374.5 392.914 374.5H423.086C423.351 374.5 423.605 374.606 423.793 374.793L436.293 387.293C436.922 387.923 436.477 389 435.586 389H409.414C408.523 389.001 408.077 390.078 408.707 390.707L413.707 395.707C413.894 395.895 414.149 396 414.414 396H444.586C444.851 396 445.105 396.106 445.293 396.293L460.261 411.261C460.895 411.896 460.438 412.98 459.541 412.968L426.031 412.533C425.135 412.521 424.678 413.603 425.31 414.238L440.273 429.258C442.608 431.603 442.605 435.395 440.266 437.735L437.734 440.266C435.394 442.605 431.602 442.609 429.258 440.274L414.237 425.311C413.602 424.678 412.521 425.136 412.532 426.032L412.968 459.541C412.979 460.438 411.895 460.895 411.261 460.261L344.586 393.586C344.211 393.211 344 392.702 344 392.172V356.168C344 355.637 343.788 355.127 343.411 354.751L324.321 335.732C311.948 346.344 297.077 354.128 280.71 358.076C276.793 359.02 273.117 360.86 270.245 363.686L256.701 377.011C256.312 377.394 255.688 377.394 255.299 377.011L241.754 363.685C238.882 360.859 235.206 359.02 231.29 358.076C185.224 346.964 151 305.479 151 256C151 230.051 160.414 206.299 176.013 187.975L166.548 178.545C166.196 178.194 165.714 177.988 165.218 177.962C133.814 176.363 121.096 166.531 122.898 142.219C122.953 141.477 122.604 140.744 121.977 140.343C108.809 131.933 101.55 129.495 91.7128 137.521C90.783 138.279 89.3773 138.123 88.6844 137.144C58.7846 94.8641 44.8001 69.9428 28.8624 30.163ZM193.085 204.984C181.778 218.911 175 236.664 175 256C175 290.811 196.959 320.491 227.78 331.948C233.799 334.185 240.434 332.393 245.276 328.176L255.344 319.409C255.72 319.081 256.281 319.081 256.657 319.409L266.724 328.176C271.566 332.393 278.2 334.185 284.219 331.948C292.648 328.815 300.412 324.315 307.248 318.723L271.337 282.945C271.077 283.093 270.815 283.236 270.551 283.376C270.503 283.402 270.455 283.427 270.407 283.453C270.187 283.569 269.965 283.682 269.741 283.792C269.682 283.822 269.624 283.851 269.564 283.88C269.465 283.929 269.365 283.976 269.266 284.023C269.171 284.068 269.076 284.112 268.981 284.156C268.812 284.234 268.642 284.311 268.471 284.386C268.393 284.42 268.315 284.454 268.237 284.488C268.113 284.541 267.99 284.594 267.865 284.646C267.81 284.669 267.754 284.691 267.699 284.713C267.458 284.812 267.216 284.907 266.972 284.999C266.938 285.012 266.905 285.025 266.871 285.038C266.751 285.083 266.63 285.127 266.51 285.17C266.393 285.212 266.276 285.254 266.158 285.294C266.009 285.346 265.86 285.396 265.71 285.446C265.601 285.482 265.491 285.517 265.382 285.552C265.288 285.582 265.194 285.611 265.1 285.64C265.074 285.648 265.049 285.658 265.022 285.665L264.486 285.824C264.438 285.837 264.389 285.849 264.341 285.863C264.185 285.906 264.028 285.949 263.871 285.99C263.803 286.008 263.734 286.026 263.666 286.043C263.468 286.094 263.269 286.142 263.069 286.189C262.983 286.209 262.897 286.228 262.811 286.247C262.69 286.275 262.569 286.301 262.447 286.327C262.343 286.349 262.24 286.37 262.136 286.391C261.955 286.427 261.773 286.462 261.591 286.496C261.491 286.514 261.39 286.531 261.29 286.548C261.167 286.569 261.043 286.59 260.92 286.61C260.824 286.625 260.729 286.64 260.633 286.655C260.441 286.683 260.25 286.711 260.057 286.736C259.973 286.747 259.888 286.757 259.804 286.767C259.629 286.788 259.453 286.809 259.277 286.828C259.229 286.833 259.18 286.838 259.132 286.843C258.915 286.865 258.697 286.884 258.478 286.901C258.418 286.906 258.357 286.91 258.297 286.914C258.069 286.931 257.84 286.946 257.611 286.957C257.604 286.958 257.597 286.959 257.59 286.959C257.35 286.972 257.109 286.98 256.867 286.987C256.817 286.988 256.766 286.99 256.716 286.991C256.478 286.996 256.239 287 256 287C255.732 287 255.466 286.996 255.2 286.99C239.512 286.592 226.721 274.541 225.16 259.169C225.107 258.648 225.067 258.123 225.04 257.595C225.013 257.067 225 256.535 225 256C225 255.762 225.002 255.524 225.008 255.287C225.009 255.231 225.011 255.175 225.013 255.12C225.019 254.893 225.027 254.668 225.038 254.443C225.04 254.395 225.043 254.348 225.046 254.3C225.057 254.095 225.071 253.891 225.086 253.687C225.089 253.642 225.092 253.596 225.096 253.551C225.113 253.33 225.132 253.11 225.154 252.89C225.164 252.795 225.175 252.701 225.185 252.606C225.202 252.454 225.218 252.301 225.237 252.15C225.243 252.102 225.249 252.053 225.255 252.005C225.284 251.781 225.315 251.558 225.348 251.335C225.357 251.277 225.367 251.219 225.376 251.162C225.407 250.965 225.44 250.769 225.474 250.574C225.491 250.481 225.508 250.389 225.525 250.296C225.555 250.134 225.585 249.973 225.618 249.812C225.628 249.761 225.639 249.71 225.649 249.659C225.688 249.471 225.73 249.284 225.772 249.097C225.81 248.932 225.849 248.768 225.89 248.604C225.907 248.532 225.924 248.459 225.942 248.387C225.967 248.288 225.993 248.19 226.018 248.091C226.048 247.977 226.08 247.863 226.111 247.749C226.167 247.548 226.225 247.348 226.284 247.148C226.311 247.058 226.338 246.968 226.365 246.878C226.386 246.811 226.405 246.743 226.427 246.676C226.475 246.523 226.525 246.371 226.575 246.219C226.615 246.099 226.657 245.979 226.698 245.859C226.74 245.737 226.783 245.616 226.827 245.495C226.862 245.398 226.897 245.301 226.932 245.205C226.995 245.037 227.058 244.87 227.123 244.704C227.153 244.627 227.184 244.551 227.215 244.475C227.27 244.337 227.326 244.198 227.384 244.061C227.41 243.998 227.436 243.934 227.463 243.872C227.535 243.702 227.609 243.534 227.684 243.366C227.737 243.248 227.79 243.13 227.845 243.013C227.877 242.944 227.909 242.874 227.941 242.805C228.019 242.64 228.099 242.476 228.18 242.313C228.231 242.208 228.282 242.103 228.335 241.999C228.393 241.884 228.454 241.769 228.514 241.655C228.547 241.59 228.582 241.525 228.616 241.46C228.707 241.29 228.8 241.12 228.893 240.952C228.928 240.889 228.963 240.826 228.998 240.763L193.085 204.984ZM284.22 180.052C278.201 177.815 271.566 179.606 266.724 183.824L256.657 192.591C256.281 192.919 255.72 192.919 255.344 192.591L245.276 183.823C240.434 179.605 233.799 177.815 227.78 180.052C219.447 183.15 211.762 187.582 204.983 193.085L240.763 228.998C240.815 228.969 240.869 228.939 240.922 228.91C241.082 228.82 241.244 228.731 241.406 228.644C241.52 228.583 241.634 228.524 241.748 228.464C241.828 228.423 241.908 228.381 241.988 228.34C242.124 228.271 242.262 228.204 242.399 228.137C242.506 228.085 242.614 228.032 242.722 227.981C242.852 227.919 242.983 227.857 243.114 227.797C243.183 227.766 243.251 227.734 243.32 227.704C243.488 227.628 243.657 227.554 243.826 227.482C243.945 227.431 244.065 227.382 244.184 227.332C244.242 227.309 244.3 227.286 244.357 227.262C244.477 227.214 244.597 227.165 244.718 227.118C244.896 227.048 245.076 226.979 245.256 226.913C245.334 226.884 245.412 226.856 245.49 226.828C245.638 226.774 245.787 226.723 245.936 226.671C245.986 226.654 246.034 226.636 246.084 226.62C246.281 226.553 246.48 226.49 246.679 226.427C246.747 226.406 246.815 226.384 246.884 226.363C247.074 226.304 247.266 226.247 247.458 226.192C247.493 226.182 247.529 226.172 247.564 226.162C247.765 226.105 247.967 226.051 248.169 225.998C248.223 225.984 248.277 225.97 248.331 225.956C248.521 225.908 248.712 225.861 248.904 225.816C248.994 225.795 249.085 225.775 249.176 225.754C249.33 225.72 249.486 225.686 249.641 225.654C249.7 225.642 249.759 225.629 249.817 225.618C250.028 225.575 250.239 225.533 250.451 225.495C250.517 225.483 250.584 225.472 250.65 225.46C250.824 225.43 250.997 225.402 251.172 225.374C251.225 225.366 251.278 225.357 251.331 225.349C251.557 225.315 251.784 225.284 252.012 225.254C252.047 225.25 252.083 225.246 252.118 225.242C252.315 225.217 252.512 225.194 252.71 225.173C252.77 225.167 252.83 225.16 252.89 225.154C253.069 225.136 253.249 225.12 253.43 225.105L253.615 225.09C253.654 225.087 253.693 225.085 253.731 225.082C253.916 225.069 254.102 225.057 254.288 225.047C254.339 225.045 254.389 225.041 254.44 225.038C254.666 225.027 254.893 225.019 255.12 225.013C255.175 225.012 255.23 225.009 255.285 225.008C255.523 225.003 255.761 225 256 225C256.267 225 256.534 225.003 256.8 225.01C273.551 225.434 287 239.147 287 256C287 256.233 286.996 256.465 286.991 256.697C286.989 256.772 286.987 256.847 286.985 256.922C286.973 257.356 286.951 257.788 286.921 258.217C286.915 258.306 286.907 258.394 286.9 258.483C286.883 258.701 286.864 258.918 286.843 259.134C286.839 259.172 286.835 259.21 286.831 259.248C286.81 259.446 286.787 259.643 286.763 259.839C286.756 259.895 286.749 259.951 286.742 260.007C286.713 260.232 286.681 260.457 286.647 260.68C286.643 260.71 286.639 260.739 286.635 260.769C286.603 260.974 286.568 261.178 286.532 261.381C286.523 261.435 286.514 261.489 286.505 261.542C286.466 261.757 286.425 261.972 286.382 262.185C286.367 262.255 286.352 262.326 286.337 262.396C286.308 262.533 286.279 262.67 286.248 262.807C286.227 262.9 286.206 262.993 286.184 263.086C286.143 263.263 286.1 263.44 286.056 263.616C286.026 263.733 285.995 263.85 285.964 263.967C285.948 264.025 285.934 264.084 285.918 264.142C285.805 264.559 285.683 264.972 285.553 265.382C285.522 265.479 285.491 265.576 285.459 265.672C285.332 266.059 285.198 266.443 285.057 266.824C285.034 266.883 285.012 266.941 284.989 267C284.902 267.23 284.811 267.458 284.719 267.685C284.694 267.746 284.671 267.807 284.645 267.868C284.595 267.99 284.542 268.112 284.49 268.234C284.467 268.288 284.443 268.341 284.42 268.395C284.012 269.328 283.56 270.237 283.066 271.12C283.026 271.192 282.985 271.265 282.944 271.337L318.724 307.249C330.145 293.288 337 275.446 337 256C337 221.19 315.041 191.509 284.22 180.052ZM255.433 245.014C249.622 245.309 245 250.115 245 256C245 261.885 249.622 266.691 255.433 266.986C255.621 266.995 255.81 267 256 267C256.19 267 256.379 266.995 256.566 266.986C262.378 266.691 267 261.885 267 256C267 250.115 262.378 245.309 256.566 245.014C256.379 245.005 256.19 245 256 245C255.81 245 255.621 245.005 255.433 245.014Z" fill="white"/>
<path d="M254.592 10.3979C255.072 9.08492 256.929 9.08472 257.409 10.3979L289.341 97.7407C289.4 97.9013 289.539 98.0232 289.71 98.06C351.384 111.284 399.923 160.044 413.006 221.946C413.042 222.117 413.164 222.258 413.325 222.317L501.602 254.592C502.915 255.072 502.915 256.928 501.602 257.409L413.094 289.766C412.934 289.825 412.813 289.964 412.775 290.133C409.83 303.608 405.201 316.451 399.123 328.429C398.891 328.886 398.35 329.087 397.864 328.925C396.046 328.318 394.126 328 392.173 327.999H367.903C367.108 327.999 366.63 327.116 367.057 326.445C380.001 306.081 387.5 281.916 387.5 255.999C387.499 183.375 328.625 124.5 256 124.499C232.738 124.5 210.886 130.54 191.929 141.138C191.354 141.46 190.627 141.153 190.45 140.519C188.446 133.348 185.432 126.835 180.932 121.4C179.603 119.796 178.2 118.346 176.732 117.039C176.212 116.577 176.282 115.734 176.887 115.389C190.849 107.439 206.118 101.527 222.289 98.06C222.459 98.0232 222.599 97.9013 222.658 97.7407L254.592 10.3979Z" fill="white"/>
</svg>
